<?xml version="1.0" standalone="no"?>
<!DOCTYPE svg PUBLIC "-//W3C//DTD SVG 20010904//EN"
 "http://www.w3.org/TR/2001/REC-SVG-20010904/DTD/svg10.dtd">
<svg version="1.0" xmlns="http://www.w3.org/2000/svg"
 width="680.000000pt" height="680.000000pt" viewBox="0 0 680.000000 680.000000"
 preserveAspectRatio="xMidYMid meet">
<metadata>
Created by potrace 1.11, written by Peter Selinger 2001-2013
</metadata>
<g transform="translate(0.000000,680.000000) scale(0.100000,-0.100000)"
fill="#000000" stroke="none">
<path d="M2137 4814 c-1 -1 -31 -4 -67 -7 -36 -3 -65 -6 -65 -7 0 0 -20 -3
-45 -5 -47 -4 -104 -13 -130 -20 -8 -2 -31 -7 -50 -10 -19 -3 -53 -11 -75 -17
-22 -6 -44 -12 -50 -13 -128 -27 -449 -167 -573 -250 -30 -19 -56 -35 -59 -35
-20 0 -258 -195 -348 -285 -105 -105 -175 -182 -175 -191 0 -3 -11 -16 -25
-30 -14 -14 -25 -28 -25 -33 0 -4 -8 -16 -18 -27 -18 -19 -88 -122 -108 -159
-6 -11 -23 -40 -37 -65 -65 -114 -122 -243 -168 -382 -22 -68 -43 -134 -45
-146 -3 -13 -11 -49 -20 -80 -8 -32 -17 -79 -20 -107 -4 -27 -8 -52 -10 -56
-10 -17 -19 -177 -19 -329 0 -194 13 -336 41 -460 17 -79 46 -189 53 -205 4
-11 16 -45 26 -75 38 -118 145 -349 196 -422 11 -14 19 -28 19 -31 0 -6 110
-168 119 -177 5 -4 31 -35 111 -133 29 -36 186 -186 250 -239 129 -107 308
-224 430 -280 139 -64 190 -87 225 -98 22 -7 49 -16 60 -21 11 -4 54 -17 95
-29 41 -12 89 -25 105 -30 17 -4 48 -11 70 -15 22 -4 51 -9 65 -12 14 -3 36
-7 50 -8 14 -2 25 -4 25 -5 0 -6 156 -14 290 -14 131 0 280 7 280 14 0 1 9 3
20 5 178 27 388 96 588 194 127 62 310 168 315 182 2 5 9 9 15 9 7 0 26 11 42
24 17 13 70 54 119 91 97 74 109 84 240 201 101 90 257 250 326 334 25 30 55
66 68 80 13 14 42 50 65 80 23 30 47 60 52 66 6 6 17 22 25 34 8 12 32 44 52
72 20 27 61 87 90 131 29 45 55 84 58 87 6 5 49 77 75 125 6 11 22 38 36 60
13 22 33 58 44 80 11 22 23 42 26 45 3 3 14 24 24 48 11 23 22 42 27 42 4 0 8
9 8 19 0 11 4 22 9 26 6 3 49 -10 98 -29 48 -19 126 -49 173 -68 47 -18 87
-33 90 -34 3 0 16 -5 30 -11 14 -6 42 -18 63 -26 20 -9 37 -15 37 -13 0 9 -31
88 -53 136 -14 30 -62 136 -106 236 -43 99 -89 202 -101 230 -12 27 -28 63
-36 80 -7 16 -27 61 -44 99 -17 38 -37 83 -44 99 -8 17 -24 54 -36 81 -13 28
-29 64 -36 81 -13 31 -14 31 -48 20 -18 -6 -40 -17 -47 -23 -8 -6 -25 -14 -39
-18 -14 -4 -57 -22 -96 -41 -40 -18 -105 -47 -145 -64 -41 -18 -105 -47 -144
-64 -38 -18 -101 -45 -140 -61 -38 -16 -71 -33 -73 -37 -2 -5 -8 -8 -13 -8 -5
0 -84 -32 -174 -71 -140 -61 -162 -73 -150 -85 7 -8 18 -14 24 -14 5 0 83 -29
173 -64 90 -35 174 -67 188 -71 14 -4 30 -11 35 -15 6 -4 27 -13 48 -20 32
-10 37 -15 31 -33 -4 -12 -15 -34 -25 -49 -11 -14 -19 -29 -19 -33 0 -12 -142
-250 -152 -253 -4 -2 -8 -8 -8 -13 0 -12 -87 -139 -173 -254 -143 -190 -293
-358 -443 -495 -222 -203 -422 -340 -644 -443 -77 -36 -184 -78 -210 -82 -3 0
-21 -6 -40 -13 -19 -6 -48 -14 -65 -17 -16 -2 -41 -7 -55 -10 -110 -24 -350
-24 -470 -1 -14 3 -42 7 -64 10 -21 4 -41 8 -45 11 -4 2 -20 6 -35 9 -30 5
-133 34 -156 43 -8 3 -19 7 -25 8 -27 7 -208 94 -264 127 -34 21 -65 38 -67
38 -3 0 -10 4 -17 10 -7 5 -37 28 -67 50 -105 76 -232 194 -295 274 -16 22
-35 44 -40 50 -6 6 -26 34 -45 61 -19 28 -38 52 -41 55 -12 10 -128 227 -134
250 -1 3 -8 21 -17 40 -16 37 -55 153 -63 186 -2 10 -9 37 -15 59 -5 22 -12
56 -15 75 -3 19 -8 41 -11 49 -9 26 -19 176 -18 276 1 204 30 373 93 550 12
33 22 65 24 70 8 35 135 269 182 336 70 100 81 113 175 212 285 300 687 487
1100 512 208 13 246 23 313 90 105 103 109 290 9 391 -38 38 -92 70 -132 80
-30 7 -188 13 -193 8z"/>
<path d="M4457 4814 c-1 -1 -36 -4 -78 -8 -41 -3 -100 -11 -130 -17 -30 -5
-65 -13 -79 -15 -70 -14 -259 -71 -273 -83 -7 -5 -15 -9 -20 -10 -47 -1 -337
-148 -490 -248 -264 -172 -528 -403 -741 -647 -28 -33 -60 -69 -71 -82 -11
-12 -30 -35 -42 -51 -103 -130 -160 -205 -186 -245 -18 -26 -35 -48 -39 -48
-5 0 -8 -5 -8 -10 0 -10 -69 -120 -81 -130 -4 -3 -22 -31 -40 -63 -19 -33 -43
-73 -53 -90 -36 -60 -76 -132 -121 -219 -25 -49 -49 -88 -54 -88 -9 0 -180 63
-216 80 -55 26 -259 100 -263 96 -2 -3 3 -22 13 -43 26 -56 51 -114 68 -153 8
-19 26 -60 40 -90 14 -30 35 -77 47 -105 12 -27 29 -66 38 -85 9 -19 17 -37
17 -40 1 -3 10 -25 22 -50 12 -25 56 -124 98 -220 43 -96 87 -195 98 -220 11
-25 20 -48 19 -52 -1 -5 2 -8 7 -8 9 0 206 85 349 151 35 16 65 29 67 29 2 0
34 14 72 32 37 18 70 33 73 33 8 2 47 20 124 55 148 66 230 103 236 105 3 1
22 9 43 18 20 9 54 24 74 33 34 15 36 17 18 27 -11 6 -25 12 -30 13 -6 1 -35
12 -65 24 -30 12 -65 26 -77 31 -13 5 -33 13 -45 18 -13 5 -50 19 -83 31 -33
12 -73 28 -90 35 -16 6 -46 18 -65 25 -19 7 -39 17 -44 21 -23 20 268 490 421
679 56 70 123 151 148 180 56 64 280 285 340 335 33 28 69 58 80 68 89 80 423
287 463 287 7 0 12 5 12 10 0 6 8 10 18 10 10 0 22 4 28 9 19 18 193 74 299
96 95 20 133 23 275 20 91 -1 176 -5 190 -8 14 -3 43 -8 65 -11 59 -8 200 -43
240 -60 19 -8 35 -12 35 -9 0 3 11 -2 25 -11 13 -9 29 -16 35 -16 17 0 157
-69 237 -116 148 -87 323 -237 449 -384 57 -67 162 -235 209 -335 25 -55 50
-107 54 -115 9 -18 66 -200 76 -245 26 -116 39 -239 39 -375 0 -168 -10 -245
-59 -455 -27 -116 -129 -343 -206 -459 -21 -32 -39 -61 -39 -65 0 -4 -8 -14
-17 -22 -10 -9 -25 -26 -33 -39 -19 -28 -82 -101 -135 -154 -180 -182 -405
-323 -655 -412 -42 -15 -55 -18 -97 -28 -10 -2 -45 -11 -78 -19 -97 -25 -152
-32 -325 -42 -129 -7 -174 -22 -238 -79 -55 -50 -86 -124 -86 -206 1 -108 57
-199 155 -251 40 -22 57 -24 169 -24 69 0 150 3 180 7 30 4 77 10 104 13 58 7
213 40 250 54 14 6 26 9 26 6 0 -5 214 68 265 91 22 10 42 18 45 19 3 1 39 18
80 39 315 158 589 383 784 641 37 50 73 97 80 105 13 17 80 126 113 185 32 57
123 248 123 259 0 2 5 17 12 33 6 15 12 30 12 33 1 3 9 25 18 50 9 25 22 65
29 90 7 25 14 50 15 55 12 40 54 263 61 320 16 137 8 501 -13 590 -2 11 -6 34
-8 50 -9 59 -34 167 -65 270 -12 39 -23 77 -25 85 -19 73 -206 456 -235 480
-3 3 -19 25 -36 50 -112 171 -317 388 -490 519 -38 29 -78 59 -88 67 -9 8 -19
14 -22 14 -2 0 -23 13 -47 29 -81 54 -203 119 -342 181 -133 59 -410 135 -566
154 -25 3 -67 9 -95 12 -48 6 -293 13 -298 8z"/>
</g>
</svg>
