<svg xmlns="http://www.w3.org/2000/svg" width="118" height="118" viewBox="0 0 118 118">
  <g id="Group_2574" data-name="Group 2574" transform="translate(-124 -1310)">
    <rect id="Rectangle_530" data-name="Rectangle 530" width="118" height="118" rx="59" transform="translate(124 1310)" fill="#32508e" opacity="0.996"/>
    <g id="policy" transform="translate(154 1343)">
      <path id="Path_11558" data-name="Path 11558" d="M32.552,335.056V331H0v4.072a6.719,6.719,0,0,0,6.669,6.736H35.832c-.28-.254-.549-.477-.8-.733A8.486,8.486,0,0,1,32.552,335.056Zm0,0" transform="translate(0 -288.912)" fill="#fff"/>
      <path id="Path_11559" data-name="Path 11559" d="M165.322,69.013l4.724,3.243,4.742-3.243a6.007,6.007,0,0,0,2.327-4.45v-6.7l-7.057-3.49L163,57.852v6.71A6,6,0,0,0,165.322,69.013Zm1.063-6.334a.89.89,0,0,1,1.259.006l1.419,1.432,3.414-3.414a.89.89,0,0,1,1.259,1.26l-4.047,4.049a.894.894,0,0,1-.629.264h0a.888.888,0,0,1-.63-.267l-2.048-2.069A.893.893,0,0,1,166.385,62.679Zm0,0" transform="translate(-142.274 -47.458)" fill="#fff"/>
      <path id="Path_11560" data-name="Path 11560" d="M393.818,0h-.028A4.839,4.839,0,0,0,389,4.8V12.97h9.537V4.786A4.764,4.764,0,0,0,393.818,0Zm0,0" transform="translate(-339.537)" fill="#fff"/>
      <path id="Path_11561" data-name="Path 11561" d="M74.873,0a4.461,4.461,0,0,0-4.486,4.422l-.263,35.887H94.65a.927.927,0,0,1,.89.932v4.9a6.736,6.736,0,0,0,6.688,6.752h.022a6.691,6.691,0,0,0,6.641-6.737V4.8A6.815,6.815,0,0,1,111,0Zm5.281,9.84a.865.865,0,0,1,.47-.8L88.6,5.123a.875.875,0,0,1,.777,0l7.985,3.928a.866.866,0,0,1,.471.8v7.255a7.758,7.758,0,0,1-3.1,5.921L89.5,26.612a.879.879,0,0,1-.5.155.867.867,0,0,1-.5-.155l-5.245-3.586a7.765,7.765,0,0,1-3.1-5.921Zm21.489,26.4H77.23a.89.89,0,0,1,0-1.78h24.414a.89.89,0,1,1,0,1.78Zm0-4.7H77.23a.89.89,0,0,1,0-1.78h24.414a.89.89,0,1,1,0,1.78Zm0,0" transform="translate(-61.208)" fill="#fff"/>
    </g>
  </g>
</svg>
