<svg xmlns="http://www.w3.org/2000/svg" width="118" height="118" viewBox="0 0 118 118">
  <g id="Group_2580" data-name="Group 2580" transform="translate(-1010 -1605)">
    <path id="Path_11924" data-name="Path 11924" d="M59,0A59,59,0,1,1,0,59,59,59,0,0,1,59,0Z" transform="translate(1010 1605)" fill="#32508e"/>
    <g id="Group_2576" data-name="Group 2576">
      <g id="trust" transform="translate(1039 1638)">
        <path id="Path_11566" data-name="Path 11566" d="M244.534,1.767a1.767,1.767,0,1,0-3.534,0v7.57a1.767,1.767,0,1,0,3.534,0Zm0,0" transform="translate(-212.613)" fill="#fff"/>
        <path id="Path_11567" data-name="Path 11567" d="M148.9,55a1.767,1.767,0,0,0,2.5-2.5l-3.785-3.785a1.767,1.767,0,0,0-2.5,2.5Zm0,0" transform="translate(-127.566 -42.522)" fill="#fff"/>
        <path id="Path_11568" data-name="Path 11568" d="M307.032,55.518A1.76,1.76,0,0,0,308.282,55l3.785-3.785a1.767,1.767,0,1,0-2.5-2.5L305.783,52.5a1.767,1.767,0,0,0,1.249,3.016Zm0,0" transform="translate(-269.309 -42.522)" fill="#fff"/>
        <path id="Path_11569" data-name="Path 11569" d="M25.042,141.5l-.052.044-7.639,6.548a3.915,3.915,0,0,1-2.545.941H9.335A9.33,9.33,0,0,0,0,158.366V175.4a1.767,1.767,0,0,0,1.767,1.767H16.906a1.767,1.767,0,0,0,1.767-1.767v-16.22l8.991-7.706a2.071,2.071,0,0,0,.723-1.573v-6.783A2.062,2.062,0,0,0,25.042,141.5Zm0,0" transform="translate(0 -124.43)" fill="#fff"/>
        <path id="Path_11570" data-name="Path 11570" d="M290.052,149.032h-5.471a3.913,3.913,0,0,1-2.545-.941l-7.639-6.548-.052-.044a2.062,2.062,0,0,0-3.345,1.62V149.9a2.071,2.071,0,0,0,.723,1.573l8.991,7.706V175.4a1.767,1.767,0,0,0,1.767,1.767H297.62a1.767,1.767,0,0,0,1.767-1.767V158.366A9.33,9.33,0,0,0,290.052,149.032Zm0,0" transform="translate(-239.079 -124.43)" fill="#fff"/>
        <path id="Path_11571" data-name="Path 11571" d="M30.955,89.909a7.444,7.444,0,1,0-7.444,7.445A7.453,7.453,0,0,0,30.955,89.909Zm0,0" transform="translate(-14.174 -72.751)" fill="#fff"/>
        <path id="Path_11572" data-name="Path 11572" d="M384.423,89.909a7.444,7.444,0,1,0-7.444,7.445A7.453,7.453,0,0,0,384.423,89.909Zm0,0" transform="translate(-326.008 -72.751)" fill="#fff"/>
      </g>
    </g>
  </g>
</svg>
